<?xml version="1.0" standalone="no"?>
<!DOCTYPE svg PUBLIC "-//W3C//DTD SVG 20010904//EN"
 "http://www.w3.org/TR/2001/REC-SVG-20010904/DTD/svg10.dtd">
<svg version="1.0" xmlns="http://www.w3.org/2000/svg"
 width="3508.000000pt" height="2480.000000pt" viewBox="0 0 3508.000000 2480.000000"
 preserveAspectRatio="xMidYMid meet">

<g transform="translate(0.000000,2480.000000) scale(0.100000,-0.100000)"
fill="#000000" stroke="none">
<path d="M14570 22374 c-76 -20 -152 -69 -214 -134 -215 -233 -148 -597 136
-740 44 -22 87 -40 94 -40 12 0 14 -163 12 -1077 l-3 -1076 -61 -13 c-180 -36
-350 -145 -463 -294 -33 -44 -62 -88 -66 -99 -4 -14 -18 -22 -43 -27 -633
-108 -1222 -344 -1759 -705 -785 -527 -1404 -1330 -1713 -2224 -195 -566 -271
-1129 -237 -1760 19 -356 100 -771 223 -1134 l55 -163 -46 -89 c-65 -125 -87
-217 -88 -364 -2 -216 64 -385 214 -549 95 -104 272 -203 410 -229 l59 -11 0
-258 0 -258 -27 -11 c-139 -52 -224 -135 -273 -267 -26 -68 -29 -204 -7 -275
35 -110 131 -215 242 -263 l65 -28 0 -516 0 -516 -43 -31 c-39 -27 -69 -72
-90 -135 -4 -10 -37 -33 -74 -52 -199 -101 -400 -292 -600 -572 -98 -136 -162
-259 -209 -399 -47 -143 -93 -409 -71 -417 3 -2 61 39 128 90 67 51 123 91
126 88 7 -6 -118 -244 -196 -374 l-60 -100 19 -130 c38 -261 125 -555 250
-846 38 -87 72 -161 75 -165 4 -3 12 1 18 11 7 9 48 68 92 132 44 64 83 116
86 116 20 0 25 -195 9 -313 -6 -41 -22 -109 -35 -153 l-24 -78 31 -56 c55 -98
171 -283 231 -370 113 -160 453 -550 581 -664 125 -112 196 -147 226 -111 23
28 6 175 -39 335 -23 80 -56 199 -73 265 -31 119 -33 121 -107 210 -63 76
-281 364 -304 402 -4 7 21 -1 55 -16 87 -39 208 -73 208 -58 0 7 -11 53 -25
102 -54 201 -68 306 -71 548 l-3 228 -29 37 c-114 146 -199 325 -263 551 -38
136 -37 143 9 99 42 -40 342 -271 346 -266 1 2 13 53 25 113 39 191 98 407
181 660 86 262 121 413 145 624 16 138 14 184 -11 264 -20 61 -85 158 -128
191 -25 19 -36 36 -41 65 -9 53 -56 125 -99 153 l-36 23 0 516 0 516 61 24
c71 28 167 110 205 175 73 125 79 282 16 413 -46 97 -154 188 -264 225 -17 5
-18 26 -18 242 l0 237 41 -49 c94 -110 443 -446 567 -546 588 -469 1248 -775
1972 -912 184 -35 332 -53 548 -68 l182 -12 0 -688 c0 -647 -1 -689 -17 -694
-64 -21 -149 -74 -192 -119 -205 -217 -140 -564 129 -689 30 -14 61 -26 68
-26 9 0 12 -81 12 -373 l0 -374 -44 -31 c-30 -22 -54 -51 -72 -87 -15 -31 -33
-55 -42 -55 -8 0 -48 -16 -88 -35 -58 -28 -85 -49 -126 -98 -98 -118 -174
-252 -223 -397 -28 -83 -91 -380 -104 -495 -10 -81 -6 -375 5 -451 l6 -41 71
71 c83 82 163 146 260 205 81 49 81 62 -3 -149 -66 -163 -130 -308 -216 -488
l-59 -123 26 -187 c15 -103 37 -245 48 -317 12 -71 27 -167 33 -213 6 -45 14
-82 17 -82 3 1 29 37 56 81 28 43 73 102 101 130 l51 50 16 -58 c45 -158 5
-332 -115 -516 l-51 -78 42 -302 c24 -166 56 -382 72 -479 16 -97 29 -180 29
-185 0 -4 28 20 63 53 65 64 150 134 161 134 20 0 -13 -200 -55 -323 -16 -49
-44 -121 -63 -161 l-33 -73 34 -112 c93 -308 192 -361 319 -170 80 120 209
449 294 745 l23 82 -37 92 c-51 128 -85 276 -93 403 -3 59 -3 107 1 107 30 0
97 -60 199 -177 l36 -42 11 39 c34 126 135 544 175 723 l46 208 -46 70 c-107
163 -208 412 -255 634 -22 105 -39 407 -26 461 7 27 14 21 221 -186 118 -118
216 -212 218 -210 13 14 25 306 22 525 -6 435 -72 738 -213 979 -61 106 -203
250 -289 295 -48 24 -63 37 -63 54 0 37 -58 125 -100 153 l-40 27 0 367 0 368
84 41 c99 48 163 112 210 211 29 60 31 73 31 175 0 103 -2 114 -32 178 -54
113 -155 202 -276 241 -16 5 -17 45 -15 693 l3 688 165 11 c722 50 1368 244
1970 594 402 234 801 561 1098 898 l72 82 0 -378 0 -378 -67 -29 c-133 -57
-238 -196 -252 -334 -22 -220 97 -407 302 -475 16 -5 17 -32 16 -383 l0 -378
-42 -30 c-57 -42 -91 -111 -93 -192 -1 -62 -2 -64 -48 -104 -88 -78 -137 -190
-137 -314 0 -201 46 -424 157 -768 84 -257 146 -488 179 -657 23 -120 21 -117
53 -88 15 14 65 53 112 88 47 35 120 92 163 127 42 35 77 57 77 50 0 -26 -59
-225 -90 -303 -45 -115 -123 -259 -181 -334 l-50 -66 -3 -229 c-3 -246 -12
-318 -67 -534 -16 -63 -27 -116 -25 -119 7 -7 173 46 219 70 22 11 41 18 42
16 6 -6 -267 -368 -324 -430 -50 -55 -54 -64 -86 -185 -19 -71 -53 -193 -75
-273 -45 -159 -62 -298 -40 -325 21 -25 65 -17 127 25 109 73 476 469 653 705
54 73 168 252 249 392 l41 72 -24 84 c-37 126 -50 235 -42 355 3 58 8 108 11
110 6 6 12 -1 108 -143 38 -55 74 -106 81 -113 10 -11 25 15 74 130 151 354
237 645 272 927 l10 78 -70 119 c-76 128 -194 353 -188 359 2 2 51 -32 108
-76 58 -45 117 -90 132 -100 l27 -20 -4 43 c-3 24 -7 66 -10 93 -16 145 -75
346 -140 475 -83 164 -252 389 -411 547 -112 111 -287 239 -358 263 -32 10
-34 14 -39 69 -2 31 -14 76 -25 98 -20 39 -83 103 -102 103 -6 0 -10 143 -10
380 0 354 1 381 18 386 110 37 220 130 265 225 78 165 49 354 -74 484 -54 58
-109 94 -171 114 l-38 13 0 401 0 402 63 12 c276 53 518 282 597 565 55 199
23 442 -80 610 l-31 50 45 131 c162 473 234 895 240 1407 5 374 -16 604 -89
965 -243 1203 -1006 2277 -2068 2913 -457 273 -958 465 -1457 557 -47 9 -95
18 -107 20 -14 3 -37 28 -59 63 -88 138 -188 226 -339 298 -49 23 -121 49
-160 57 l-70 14 -3 1075 -2 1075 42 12 c62 18 125 57 186 114 95 90 142 203
142 338 0 314 -293 535 -600 453z m-656 -3956 c21 -109 42 -175 76 -245 105
-213 299 -370 527 -424 127 -30 313 -24 428 15 274 93 469 311 530 593 10 43
19 79 20 81 7 8 350 -83 485 -128 1118 -374 2019 -1220 2465 -2315 136 -333
221 -662 272 -1050 22 -173 25 -726 5 -895 -33 -269 -88 -534 -159 -763 -33
-107 -39 -118 -57 -113 -12 3 -57 14 -101 25 -98 25 -251 29 -350 8 -345 -73
-588 -344 -628 -698 -26 -234 70 -492 244 -653 l61 -57 -143 -145 c-79 -80
-189 -185 -244 -233 -634 -550 -1434 -892 -2270 -970 -162 -15 -617 -13 -780
4 -786 82 -1508 378 -2125 871 -74 60 -217 190 -318 290 l-183 181 79 79 c162
163 242 372 228 599 -7 123 -26 196 -76 300 -51 104 -124 199 -202 264 -79 65
-219 135 -322 161 -131 33 -319 26 -437 -15 -23 -8 -47 -15 -54 -15 -22 0
-122 364 -164 600 -42 239 -56 410 -56 705 0 414 38 707 141 1077 239 867 765
1631 1501 2179 313 234 691 432 1073 564 141 48 479 143 517 144 7 1 15 -9 17
-21z m-2913 -9543 c17 -19 44 -43 60 -52 16 -10 29 -21 29 -26 0 -5 -20 -34
-43 -65 -188 -245 -364 -551 -437 -757 -69 -196 -109 -453 -95 -609 5 -60 5
-60 -10 -29 -25 55 -52 214 -54 320 -4 244 86 533 266 848 52 91 246 405 251
405 1 0 16 -16 33 -35z m7485 -127 c257 -405 363 -622 432 -878 22 -83 25
-116 26 -270 1 -153 -2 -186 -23 -268 -13 -51 -26 -94 -30 -96 -3 -2 -5 29 -3
71 2 41 -1 126 -8 189 -40 387 -201 724 -597 1251 l-24 32 49 21 c28 12 60 33
73 46 12 13 24 24 25 24 1 0 38 -55 80 -122z m-3730 -2235 c-4 -43 -9 -109
-12 -148 -9 -132 -35 -320 -89 -655 -60 -370 -81 -518 -90 -630 -4 -41 -9 -86
-11 -100 -7 -39 -5 -445 2 -464 3 -9 2 -16 -4 -16 -10 0 -38 162 -50 290 -9
99 -9 438 0 568 11 148 32 323 83 682 24 173 50 365 56 427 l12 112 46 4 c25
2 50 4 54 5 5 1 6 -33 3 -75z"/>
<path d="M12680 16740 l0 -200 413 -2 412 -3 3 -543 c2 -478 0 -545 -13 -566
-9 -13 -50 -52 -91 -86 l-74 -63 0 -103 c0 -59 4 -104 10 -104 14 0 177 61
370 138 207 82 419 152 550 180 315 68 815 92 1016 48 187 -40 320 -126 458
-294 l56 -70 -2 -236 -3 -237 -55 41 c-117 89 -348 184 -561 231 -137 30 -456
38 -640 14 -522 -66 -1034 -330 -1331 -685 -101 -120 -168 -229 -210 -339 -31
-82 -32 -93 -33 -226 0 -109 4 -153 19 -200 120 -390 542 -684 1107 -771 136
-21 428 -21 614 1 293 34 521 111 810 272 178 99 202 110 220 98 31 -19 57
-71 64 -128 l6 -52 140 -70 c133 -67 347 -165 395 -180 l21 -7 -4 1104 c-3
767 -8 1136 -16 1213 -25 228 -73 402 -154 560 -54 106 -197 251 -308 312 -99
56 -258 108 -405 134 -169 29 -482 37 -665 16 -178 -21 -415 -68 -570 -113
-153 -45 -200 -51 -218 -30 -8 9 -24 16 -37 16 l-24 0 0 365 0 365 1345 0
1345 0 0 200 0 200 -1980 0 -1980 0 0 -200z m2335 -2354 c542 -125 775 -255
775 -434 0 -54 -17 -84 -114 -196 -147 -171 -487 -396 -786 -519 -468 -193
-1033 -258 -1408 -161 -168 44 -272 115 -327 225 -37 73 -30 133 30 254 126
255 377 487 718 665 273 142 526 202 832 196 132 -2 181 -8 280 -30z"/>
<path d="M7161 16208 c-5 -13 -163 -489 -352 -1058 -188 -569 -345 -1038 -349
-1042 -3 -4 -149 469 -325 1052 l-319 1060 -393 0 c-216 0 -393 -3 -393 -6 0
-3 237 -719 526 -1590 l525 -1584 341 2 341 3 361 1037 c198 571 362 1035 365
1033 3 -3 167 -470 366 -1038 l361 -1032 341 -3 341 -2 150 452 c83 249 320
962 526 1584 207 622 376 1134 376 1138 0 3 -173 6 -385 6 l-384 0 -9 -32
c-52 -187 -627 -2078 -632 -2078 -3 0 -164 476 -356 1058 l-350 1057 -332 3
-332 2 -9 -22z"/>
<path d="M19737 16213 c-4 -3 -7 -714 -7 -1580 l0 -1573 380 0 380 0 0 630 0
630 675 0 675 0 0 -630 0 -630 375 0 375 0 0 1580 0 1580 -375 0 -375 0 0
-625 0 -625 -675 0 -675 0 -2 623 -3 622 -371 3 c-204 1 -373 -1 -377 -5z"/>
<path d="M23367 16213 c-4 -3 -7 -714 -7 -1580 l0 -1573 380 0 380 0 0 1580 0
1580 -373 0 c-206 0 -377 -3 -380 -7z"/>
<path d="M24900 14640 l0 -1580 1180 0 1180 0 0 320 0 320 -805 0 -805 0 0
1260 0 1260 -375 0 -375 0 0 -1580z"/>
<path d="M27830 14640 l0 -1580 1260 0 1260 0 0 310 0 310 -890 0 -890 0 0
345 0 345 795 0 795 0 0 280 0 280 -795 0 -795 0 0 335 0 335 880 0 880 0 0
310 0 310 -1250 0 -1250 0 0 -1580z"/>
<path d="M19934 12656 c-132 -43 -274 -234 -294 -393 -4 -34 -11 -66 -14 -72
-11 -17 -8 -493 4 -588 15 -125 27 -172 82 -311 26 -68 48 -129 48 -136 0 -27
41 -66 70 -66 63 0 64 58 5 230 -21 58 -41 130 -46 160 -6 30 -14 74 -19 98
-12 50 -13 172 -2 188 11 17 60 8 102 -20 53 -35 105 -46 231 -50 170 -5 256
17 333 84 169 149 106 496 -135 742 -119 122 -253 171 -365 134z m191 -111
c22 -10 72 -51 112 -91 146 -147 230 -398 174 -519 -52 -113 -185 -161 -377
-136 -73 10 -108 21 -191 62 -56 27 -107 58 -113 69 -19 35 -12 236 11 319 44
158 104 252 191 296 62 31 127 31 193 0z"/>
<path d="M24356 12238 c-20 -28 -20 -46 0 -94 9 -22 27 -75 40 -119 13 -44 33
-107 45 -140 20 -56 21 -72 15 -253 -12 -373 -58 -456 -256 -456 -117 0 -162
15 -221 75 -96 99 -139 227 -139 417 0 151 13 242 52 350 36 102 34 146 -5
176 -26 19 -29 19 -55 4 -24 -15 -29 -28 -44 -115 -69 -390 -70 -524 -7 -695
50 -137 86 -187 175 -244 87 -56 165 -77 269 -72 78 3 98 8 140 32 119 69 176
168 200 348 36 270 15 459 -79 714 l-33 89 -40 3 c-33 2 -44 -1 -57 -20z"/>
<path d="M22716 12228 c-8 -13 -18 -35 -21 -49 -6 -23 -1 -30 29 -48 24 -15
39 -34 46 -59 6 -20 15 -152 20 -293 8 -238 13 -327 25 -421 5 -33 3 -38 -15
-38 -28 0 -60 -35 -60 -66 0 -38 56 -89 121 -109 72 -23 297 -32 380 -16 206
41 309 175 309 402 0 264 -159 539 -372 643 -91 45 -170 60 -274 53 -62 -5
-86 -2 -100 8 -29 22 -71 18 -88 -7z m416 -111 c138 -68 253 -216 309 -397 33
-106 34 -293 2 -362 -55 -119 -151 -169 -336 -176 -65 -2 -132 -1 -150 2 l-33
6 -12 98 c-6 53 -14 142 -17 197 -3 55 -8 127 -10 160 -2 33 -7 110 -10 170
-3 61 -11 159 -17 219 -9 90 -9 110 3 118 8 5 55 7 105 6 82 -3 100 -8 166
-41z"/>
<path d="M29688 12230 c-138 -49 -262 -149 -292 -236 -25 -74 -21 -146 10
-183 45 -54 81 -72 232 -112 283 -77 428 -151 476 -243 19 -39 19 -39 0 -74
-26 -47 -115 -99 -250 -145 -166 -56 -332 -84 -348 -59 -3 5 2 21 10 36 33 65
-4 77 -60 21 -47 -47 -69 -91 -61 -122 l6 -26 99 7 c354 24 637 128 692 253
18 42 19 52 8 102 -10 46 -21 64 -69 111 -82 81 -188 129 -466 210 -75 22
-147 48 -160 58 -45 33 -58 98 -30 151 22 44 103 111 170 142 55 25 76 31 156
43 14 2 50 -4 80 -15 72 -25 79 -24 79 9 0 52 -53 82 -153 88 -55 4 -85 0
-129 -16z"/>
<path d="M20951 12229 c-156 -18 -287 -66 -309 -113 -6 -15 -6 -42 3 -86 11
-54 38 -657 40 -867 0 -75 25 -110 69 -99 25 6 26 10 26 72 0 36 -4 95 -9 132
-15 104 -19 173 -12 221 l6 44 58 -50 c42 -37 99 -70 215 -123 232 -107 383
-201 420 -260 16 -26 75 -55 96 -47 10 4 16 18 16 39 0 26 -10 41 -50 79 -89
83 -149 118 -490 282 -119 58 -149 78 -169 114 -18 35 -14 39 52 63 144 52
342 176 399 252 67 88 79 170 34 238 -32 49 -128 97 -217 110 -72 11 -75 11
-178 -1z m254 -93 c60 -27 74 -43 82 -89 18 -113 -174 -269 -440 -356 -37 -13
-73 -21 -80 -18 -14 5 -21 118 -22 312 l0 100 36 18 c120 58 334 76 424 33z"/>
<path d="M25035 12221 c-83 -37 -155 -151 -213 -332 -40 -125 -52 -200 -52
-329 1 -278 88 -406 305 -445 140 -26 368 -1 446 48 20 12 66 54 102 93 58 61
67 77 67 108 l0 37 -42 -3 c-40 -3 -45 -6 -71 -55 -32 -60 -91 -112 -163 -145
-73 -33 -257 -38 -351 -9 -85 25 -142 72 -174 143 -22 49 -24 65 -24 223 0
136 4 184 19 240 44 161 116 300 180 346 74 55 141 29 140 -54 0 -23 -4 -80
-8 -127 -8 -76 -7 -88 9 -104 14 -13 28 -17 53 -12 19 3 36 7 38 9 7 6 6 232
-1 270 -18 97 -152 148 -260 98z"/>
<path d="M21981 12219 c-51 -16 -82 -40 -97 -76 -34 -79 0 -97 72 -38 51 42
83 55 133 55 97 0 217 -82 265 -183 43 -89 68 -246 64 -394 -3 -126 -4 -131
-41 -205 -73 -148 -192 -227 -323 -215 -148 14 -232 111 -242 278 -6 106 9
164 74 276 92 161 178 259 265 304 74 37 60 99 -23 99 -35 0 -48 -8 -120 -72
-208 -188 -300 -364 -300 -573 0 -139 22 -203 95 -282 143 -155 419 -145 576
22 104 110 147 246 137 433 -21 361 -170 567 -419 578 -45 2 -97 -1 -116 -7z"/>
<path d="M25845 12221 c-66 -3 -126 -10 -132 -14 -16 -10 -17 -73 -1 -83 6 -4
104 -9 217 -11 113 -2 209 -7 213 -11 11 -11 11 -66 3 -512 -6 -373 -5 -419 9
-453 16 -35 19 -38 54 -35 l37 3 1 465 c1 418 4 503 19 548 4 11 42 12 204 7
230 -9 271 -4 271 28 0 37 -16 50 -72 59 -67 10 -662 17 -823 9z"/>
<path d="M27568 12215 c-58 -19 -98 -64 -98 -111 0 -29 3 -34 23 -34 13 0 32
9 43 21 10 12 38 32 62 46 37 22 52 25 101 20 103 -9 200 -77 249 -174 59
-115 90 -407 57 -529 -30 -112 -110 -214 -208 -266 -59 -32 -184 -32 -243 -1
-106 56 -148 148 -142 306 l4 102 58 105 c32 58 73 125 91 150 47 63 133 144
183 169 34 17 42 27 42 49 0 39 -17 52 -66 52 -39 0 -48 -6 -137 -90 -162
-153 -239 -276 -271 -433 -36 -174 -5 -319 89 -413 146 -146 425 -131 573 31
97 106 133 209 133 380 1 306 -98 520 -277 602 -68 31 -197 40 -266 18z"/>
<path d="M28936 12178 c-23 -196 12 -376 130 -665 54 -132 101 -289 90 -300
-29 -29 -400 315 -517 479 -73 104 -117 202 -130 295 -7 43 -16 83 -21 89 -8
11 -50 20 -118 27 -41 4 -56 -41 -42 -128 13 -86 4 -461 -13 -574 -3 -13 -5
-94 -6 -179 -1 -139 1 -157 17 -169 24 -17 39 -16 55 3 10 12 13 56 11 183 -1
91 4 252 11 356 6 105 12 234 12 287 0 54 3 98 6 98 3 0 11 -24 19 -52 7 -29
34 -93 59 -143 84 -162 192 -292 386 -462 211 -184 316 -249 365 -223 26 14
25 40 -3 98 -13 26 -32 78 -41 116 -9 39 -35 111 -56 161 -96 226 -157 448
-166 608 -7 125 -11 147 -28 147 -9 0 -15 -18 -20 -52z"/>
<path d="M26824 12205 c-12 -29 -10 -109 3 -154 9 -31 13 -133 13 -340 1 -488
29 -610 142 -599 43 4 48 31 13 68 -40 42 -48 121 -51 545 -1 209 -6 405 -11
435 l-8 55 -48 3 c-36 2 -49 -1 -53 -13z"/>
</g>
</svg>
